<?xml version="1.0" standalone="no"?><!DOCTYPE svg PUBLIC "-//W3C//DTD SVG 1.1//EN" "http://www.w3.org/Graphics/SVG/1.1/DTD/svg11.dtd"><svg t="1571910146214" class="icon" viewBox="0 0 1024 1024" version="1.1" xmlns="http://www.w3.org/2000/svg" p-id="7061" xmlns:xlink="http://www.w3.org/1999/xlink" width="200" height="200"><defs><style type="text/css"></style></defs><path d="M908.12 1012H115.88a104 104 0 0 1-104-104V115.88a104 104 0 0 1 104-104h792.24a104 104 0 0 1 104 104v792.24a104 104 0 0 1-104 103.88zM115.88 95.82a20 20 0 0 0-20 20v792.3a20 20 0 0 0 20 20h792.24a20 20 0 0 0 20-20V115.88a20 20 0 0 0-20-20z" fill="#2c2c2c" p-id="7062"></path></svg>